HIERARCHY
ROOT Hips
{
    OFFSET 0.000000 0.000000 0.000000
    CHANNELS 6 Xposition Yposition Zposition Zrotation Xrotation Yrotation
    JOINT Spine
    {
        OFFSET -0.000000 7.856138 0.000000
        CHANNELS 3 Zrotation Xrotation Yrotation
        JOINT Spine1
        {
            OFFSET -0.000000 20.830866 0.000000
            CHANNELS 3 Zrotation Xrotation Yrotation
            JOINT Neck
            {
                OFFSET -0.000000 20.745317 1.885938
                CHANNELS 3 Zrotation Xrotation Yrotation
                JOINT Head
                {
                    OFFSET -0.000000 13.412918 -1.916131
                    CHANNELS 3 Zrotation Xrotation Yrotation
                    End Site
                    {
                        OFFSET -0.000000 23.951641 0.000000
                    }
                }
            }
            JOINT LeftShoulder
            {
                OFFSET 3.826675 19.078362 -0.073511
                CHANNELS 3 Zrotation Xrotation Yrotation
                JOINT LeftArm
                {
                    OFFSET 10.442133 0.000000 0.000000
                    CHANNELS 3 Zrotation Xrotation Yrotation
                    JOINT LeftForeArm
                    {
                        OFFSET 37.051945 0.000000 0.000000
                        CHANNELS 3 Zrotation Xrotation Yrotation
                        JOINT LeftHand
                        {
                            OFFSET 24.394852 0.000000 0.000000
                            CHANNELS 3 Zrotation Xrotation Yrotation
                            End Site
                            {
                                OFFSET 14.370985 0.000000 0.000000
                            }
                        }
                    }
                }
            }
            JOINT RightShoulder
            {
                OFFSET -3.827599 19.078362 -0.073511
                CHANNELS 3 Zrotation Xrotation Yrotation
                JOINT RightArm
                {
                    OFFSET -10.442133 0.000000 0.000000
                    CHANNELS 3 Zrotation Xrotation Yrotation
                    JOINT RightForeArm
                    {
                        OFFSET -37.051945 0.000000 0.000000
                        CHANNELS 3 Zrotation Xrotation Yrotation
                        JOINT RightHand
                        {
                            OFFSET -24.394852 0.000000 0.000000
                            CHANNELS 3 Zrotation Xrotation Yrotation
                            End Site
                            {
                                OFFSET -14.370985 0.000000 0.000000
                            }
                        }
                    }
                }
            }
        }
    }
    JOINT LeftUpLeg
    {
        OFFSET 9.580656 0.000000 0.000000
        CHANNELS 3 Zrotation Xrotation Yrotation
        JOINT LeftLeg
        {
            OFFSET -0.000000 -43.769192 0.000000
            CHANNELS 3 Zrotation Xrotation Yrotation
            JOINT LeftFoot
            {
                OFFSET -0.000000 -42.531967 0.000000
                CHANNELS 3 Zrotation Xrotation Yrotation
                JOINT LeftToeBase
                {
                    OFFSET -0.000000 -6.227426 14.370985
                    CHANNELS 3 Zrotation Xrotation Yrotation
                    End Site
                    {
                        OFFSET -0.000000 0.000000 3.832262
                    }
                }
            }
        }
    }
    JOINT RightUpLeg
    {
        OFFSET -9.580656 0.000000 0.000000
        CHANNELS 3 Zrotation Xrotation Yrotation
        JOINT RightLeg
        {
            OFFSET -0.000000 -43.769192 0.000000
            CHANNELS 3 Zrotation Xrotation Yrotation
            JOINT RightFoot
            {
                OFFSET -0.000000 -42.531967 0.000000
                CHANNELS 3 Zrotation Xrotation Yrotation
                JOINT RightToeBase
                {
                    OFFSET -0.000000 -6.227426 14.370985
                    CHANNELS 3 Zrotation Xrotation Yrotation
                    End Site
                    {
                        OFFSET -0.000000 0.000000 3.832262
                    }
                }
            }
        }
    }
}
MOTION
Frames:    12
Frame Time:    0.008333
-26.463789    70.648148    28.497999    -9.482709    -1.310808    88.025856    5.774314    29.294201    0.586186    -6.075545    7.865853    2.514779    6.952081    -13.806012    -0.406751    0.164954    -27.637140    -2.237783    3.070782    7.056367    -2.973807    -26.946915    35.843487    -44.357719    17.044165    -33.577797    -45.516369    7.431173    -26.335476    17.649031    2.333240    5.529890    13.574510    23.071659    31.955076    40.051079    -10.575847    -31.256229    39.184319    1.440743    -28.032661    -5.344776    35.706890    -47.121483    24.700331    -81.096436    70.377296    50.285561    10.349089    -36.246147    20.061720    0.000000    0.000000    0.000000    -14.795445    -57.088078    -11.604781    71.219093    77.597404    -60.653606    -1.414511    -32.842781    -4.150248    0.000000    0.000000    0.000000    
-26.444193    69.954361    28.452917    -9.064463    -1.310592    87.862175    5.833222    30.064213    0.571174    -6.272982    7.827039    2.568681    7.276952    -13.952640    -0.305470    -0.243827    -27.790371    -2.383551    3.289849    6.869666    -3.008039    -27.146954    35.382305    -44.132393    17.276360    -33.654350    -46.005806    4.803512    -26.620670    17.520227    2.327820    5.527365    13.616276    22.716661    31.563524    40.163040    -10.363444    -31.556511    39.608963    2.436232    -28.400623    -4.708962    36.547546    -47.316025    25.034435    -85.988571    70.516022    54.330215    10.353724    -36.216606    20.138084    0.000000    0.000000    0.000000    -15.400907    -57.477802    -11.902575    78.333519    77.832626    -67.361595    -1.233122    -32.944874    -3.949031    0.000000    0.000000    0.000000    
-26.415051    69.256516    28.414206    -8.645421    -1.331687    87.702965    5.807334    30.899303    0.544835    -6.186233    7.558584    2.560332    7.068925    -13.898899    -0.303813    -0.114728    -27.950182    -2.273443    3.131859    6.821231    -3.011749    -27.161413    34.902706    -43.753532    16.858006    -33.985985    -46.985699    4.373487    -27.031445    17.901316    2.148402    5.579926    13.918925    22.625795    31.135183    40.028347    -10.242783    -31.906757    39.911850    4.212747    -28.809422    -3.829678    37.381493    -47.476902    25.362411    -90.916725    70.509865    58.294605    10.690598    -36.124634    20.538794    0.000000    0.000000    0.000000    -16.108522    -57.788219    -12.408085    85.480110    77.839142    -73.779602    -1.614868    -33.063061    -4.217466    0.000000    0.000000    0.000000    
-26.411533    68.544518    28.336895    -8.363303    -1.236789    87.668251    5.838298    31.431377    0.465375    -6.276663    7.629097    2.528560    6.957220    -14.138245    -0.343393    0.047334    -27.986338    -2.237477    3.253210    6.604766    -2.979913    -27.402899    34.419384    -43.466057    16.368366    -34.526302    -48.114902    4.360810    -27.613546    18.516994    1.980303    5.427144    13.999137    22.473017    30.885323    40.013805    -10.189660    -32.310444    40.348633    5.474735    -29.215467    -3.206852    37.878468    -47.925713    25.596758    -95.611298    70.483612    62.433956    11.082464    -36.092278    20.931992    0.000000    0.000000    0.000000    -17.251801    -58.313599    -13.417870    93.183861    77.863403    -80.700729    -1.967432    -32.936207    -4.564715    0.000000    0.000000    0.000000    
-26.385614    67.837143    28.303715    -8.034338    -1.319745    87.437035    5.919193    32.082047    0.457977    -6.383697    7.532975    2.582104    6.826180    -14.138197    -0.361161    0.242443    -28.252710    -2.145647    3.328326    6.471074    -2.866657    -27.544962    34.023785    -43.149609    16.278734    -35.010181    -49.029602    3.030376    -28.213507    18.887442    1.895535    5.323434    14.127745    22.390419    30.524477    39.967525    -9.641725    -32.513447    40.947159    6.585278    -29.566830    -2.964340    38.891251    -48.114822    26.140923    -100.464317    70.153618    66.311890    11.773460    -35.918400    21.764456    0.000000    0.000000    0.000000    -17.660765    -58.805122    -13.749215    99.902069    77.648872    -87.335793    -1.918475    -32.952446    -4.279945    0.000000    0.000000    0.000000    
-26.324705    67.120171    28.274715    -7.572455    -1.437741    87.267998    6.102932    32.683952    0.351477    -6.485000    7.695815    2.579320    6.760271    -14.408113    -0.302390    0.231935    -28.121754    -2.086758    3.324119    6.323502    -2.656431    -27.587925    33.452141    -42.866623    16.354832    -35.363522    -49.549797    -0.727234    -29.020058    17.005424    1.712154    5.192263    14.338855    22.202871    30.303684    40.004684    -9.759444    -32.750816    41.325527    8.137048    -29.720026    -2.054942    39.765476    -48.215618    26.485537    -105.109558    69.655930    70.127953    12.460081    -35.785114    22.549530    0.000000    0.000000    0.000000    -18.157032    -59.136688    -14.447698    106.946655    77.436928    -93.695717    -2.278956    -32.829918    -4.771419    0.000000    0.000000    0.000000    
-26.277002    66.388176    28.230194    -7.225961    -1.493129    87.041199    6.044329    33.392746    0.481566    -6.496544    7.433728    2.718713    6.628872    -14.449512    -0.397456    0.401405    -28.181629    -2.087175    3.445225    6.220251    -2.755032    -27.935579    32.988354    -42.463749    16.712671    -35.545128    -49.995983    -3.250402    -29.303699    16.105993    1.790014    5.151512    14.234105    22.016838    30.145470    39.888470    -9.414726    -33.291733    42.099125    8.593574    -30.345875    -2.208950    40.638226    -48.383301    26.935110    -109.507439    69.021477    73.832199    13.242412    -35.690052    23.361786    0.000000    0.000000    0.000000    -18.583082    -59.664295    -14.774483    113.212128    76.890961    -99.821671    -2.522863    -32.785332    -4.823391    0.000000    0.000000    0.000000    
-26.229900    65.640312    28.155380    -6.900234    -1.469883    86.845337    6.172017    33.830070    0.350982    -6.655205    7.513879    2.667280    6.590239    -14.351809    -0.309709    0.297887    -28.480562    -2.018258    3.344034    6.126772    -2.452734    -27.898458    32.473282    -42.186958    16.539585    -35.954460    -50.606842    -6.803191    -30.011795    13.339957    1.589419    5.094810    14.476880    22.066895    29.676044    39.847515    -8.900860    -33.668774    42.813213    9.958344    -30.850006    -1.887023    41.469799    -48.559917    27.253939    -113.415291    68.003685    76.689781    14.291077    -35.440208    24.625830    0.000000    0.000000    0.000000    -19.300932    -60.122810    -15.429928    119.246292    76.259781    -104.842659    -3.253296    -32.851360    -5.814649    0.000000    0.000000    0.000000    
-26.143038    64.903618    28.130426    -6.431288    -1.624077    86.629234    6.159623    34.765160    0.448087    -6.534970    6.863155    2.770496    6.673032    -14.209307    -0.276588    -0.122283    -28.250418    -2.158914    3.246439    6.220006    -2.734390    -28.252144    31.999311    -41.453724    16.350430    -36.287655    -51.365604    -9.929647    -30.521215    11.661736    1.708461    5.278163    14.555713    22.110607    29.390276    39.401260    -8.198485    -34.473022    43.765335    12.029517    -31.821541    -1.261658    42.106850    -48.583088    27.805571    -117.834068    67.696983    79.226936    16.023960    -35.310272    26.993698    0.000000    0.000000    0.000000    -19.534767    -60.348610    -15.671978    124.079437    75.474701    -108.787788    -3.779125    -33.009037    -6.641095    0.000000    0.000000    0.000000    
-26.079056    64.139198    28.078753    -6.086537    -1.682564    86.428917    6.494651    35.063309    0.225449    -6.962514    7.222216    2.719276    6.571556    -14.377588    -0.229421    0.171113    -28.415977    -1.979740    3.473091    5.978996    -2.286225    -28.261101    31.598330    -41.313187    15.690791    -36.578121    -52.674641    -10.825277    -30.968506    11.311890    1.640927    5.023016    14.764624    22.221863    29.028553    39.323090    -7.485245    -35.394341    44.942852    13.681771    -33.018555    -1.909007    42.773384    -48.834572    28.536180    -122.077332    67.206070    82.733360    16.996967    -35.252319    28.192476    0.000000    0.000000    0.000000    -20.150558    -60.708790    -16.005402    127.996910    74.405563    -111.990807    -4.301128    -33.261940    -7.257724    0.000000    0.000000    0.000000    
-26.031185    63.372456    28.020426    -5.827265    -1.749168    86.219688    6.533777    35.426643    0.258227    -6.995368    7.189438    2.787350    6.649090    -14.612427    -0.137494    -0.148773    -28.026030    -2.040960    3.556427    5.866653    -2.289107    -28.537331    31.231127    -40.884678    14.981100    -36.792740    -54.134125    -10.930367    -31.312862    11.378307    1.573248    4.945797    14.799450    22.356253    28.678911    39.057674    -6.212076    -35.862850    46.226028    14.878035    -33.868031    -1.714104    43.440090    -49.150681    29.145344    -125.868309    66.513023    85.832245    17.891451    -35.294109    29.370369    0.000000    0.000000    0.000000    -20.419237    -61.366131    -16.264893    132.383118    73.604797    -116.438148    -4.236422    -33.261108    -7.092885    0.000000    0.000000    0.000000    
-25.938011    62.595242    27.974817    -5.356775    -1.849839    86.046822    6.642782    35.993015    0.205714    -7.047628    7.099125    2.803724    6.488176    -14.450928    -0.158647    0.057422    -28.258791    -1.930883    3.582700    5.846197    -2.218326    -28.694010    30.832861    -40.499439    14.497631    -36.848492    -55.467220    -11.453042    -31.501678    11.998011    1.579947    4.937798    14.861010    22.588150    28.146473    38.757843    -6.195126    -35.996517    46.682476    18.387606    -33.734402    0.494627    44.033340    -49.324299    29.554945    -129.451096    65.618561    88.767624    18.658485    -35.244431    30.488249    0.000000    0.000000    0.000000    -20.651142    -61.685680    -16.404690    136.181442    72.610466    -119.312325    -4.869958    -33.351875    -7.992955    0.000000    0.000000    0.000000    
